<?xml version="1.0" encoding="UTF-8"?>
<svg version="1.1" viewBox="0 0 2012 1180" width="503" height="295" xmlns="http://www.w3.org/2000/svg">
<path transform="translate(638,261)" d="m0 0h349l12 3 17 7 16 8 22 12 27 16 23 13 24 14 24 13 19 10 29 14 25 10 25 9 28 8 37 7 9 2 1 4-1 38-14 7-26 10-22 7-4-1-6-18-5-9-10-9-11-5-20-4-12-1-122-4-99-2-92-2-79-1-12-1-2-2-8-37-6-27-6-12-8-6-6-2-7-1h-13l-19 3-30 8-28 10-16 8-8 7-5 7-3 10-1 14 3 15 5 12 6 8 5 3 5 1 15-1 19-4 8-1 3 14 1 11-7 2-61 4-31 4-24 4-1-1-1-24v-96l1-20 3-14 6-14 9-12 11-11 13-8 14-5z" fill="#59BCC6"/>
<path transform="translate(725,357)" d="m0 0h10l7 2 5 6 3 10 7 36 6 33 1 5 37 1 58 1 66 2 98 2 75 2 108 2 9 2 5 5 3 6v11l-6 15-12 27-7 15-15 33-19 42-16 36-11 24-12 27-6 9-3 3-13 2h-23l-2 1 13 12 5 9 2 13-2 9-6 10-8 6-8 3h-14l-10-4-6-5-5-8-3-10v-8l4-11 9-10 6-5 1-2h-217l-1 2 9 3 6 4 6 7 4 10v14l-6 12-7 6-8 4-4 1h-9l-11-4-8-6-5-8-2-5-1-9 3-12 6-8 8-7 8-2 1-2-31-1-13-2-8-6-4-13-21-118-11-60-10-54-9-54-2-8v-4l-25 7-21 6h-10l-6-3-5-6-1-3v-10l4-7 5-4 15-5zm46 128v9l7 37 2 4 5-4 7-14 10-25 1-6-4-1zm71 2-4 7-9 20-14 33-18 41-5 12v12l9 54 4 13 2 1h10l4-5 26-62 18-42 11-26 18-41 5-13v-3l-10-1zm97 1-6 9-12 29-11 25-14 33-15 35-18 40-6 16 1 5 27 1h25l6-2 5-8 13-32 15-34 13-30 13-31 16-37 4-11v-6l-1-1-40-1zm96 3-8 16-15 36-19 43-13 30-13 31-11 25-2 7 7 2 40 1 5-2 5-8 10-25 13-30 17-40 12-28 13-30 8-19 1-8-9-1zm91 1-4 4-8 18-13 31-29 67-12 28-13 30-3 10 3 1 42 1 7-2 5-7 10-24 12-27 11-25 7-15 19-42 16-35 2-6v-5l-2-1z" fill="#B8F7F2"/>
<path transform="translate(659,493)" d="m0 0h42l3 6 8 41 16 86 11 65 5 21 6 12 8 6 12 5 11 3v20l2 17-10 8-17 14-14 11-13 11-12 11-8 7-13 13-7 8-5 4-16 1h-26l-14-2-16-6-11-7-10-9-7-8-8-14-4-12-2-13v-285l3-3 12-3 30-4z" fill="#56A8D5"/>
<path transform="translate(1322,555)" d="m0 0h2l1 7v67l-1 16-11 9-13 10-13 12-25 25-7 8-13 16-8 11-7 10-13 19-12 19-17 29-14 26-11 20-3 3-9 1h-424l-1-2 5-5 10-9 17-13 18-13 19-12 13-8 5-3 10 1h18l17-4 12-5 10-8 6-10 6-17 10-7 13-5 4-1h89l10 1v20l3 10 6 10 7 6 14 7 11 3 13 1 14-3 12-6 10-9 6-9 4-11 2-11 2-2 9-1 9-6 7-8 11-22 9-21 19-42 8-16 5-5 34-17 22-12 22-13 22-14 21-13z" fill="#7481EB"/>
<path transform="translate(1070,260)" d="m0 0h153l35 1 14 3 12 5 13 9 11 11 8 13 5 11 3 14 1 12v45l-4 1-34-8-36-12-29-12-26-13-24-14-23-14-15-10-25-16-20-13-18-10z" fill="#B8F7F2"/>
<path transform="translate(1323,674)" d="m0 0h2v111l-1 14-5 16-6 12-7 9-7 8-11 8-13 6-14 4-8 1h-50l-5-1 2-6 12-25 12-23 13-23 10-17 12-19 14-20 14-18 10-11 7-8 10-10 8-7z" fill="#A880EB"/>
<path transform="translate(1097,996)" d="m0 0 19 2 13 5 10 7 8 8 7 12 5 15 2 13v13l-3 19-5 13-6 11-6 7-9 7-11 5-9 2h-23l-13-4-9-5-9-7-9-13-6-16-3-15v-20l4-16 5-12 6-10 5-6 10-7 11-5zm-2 23-10 5-7 8-5 11-2 7-1 8v12l2 14 5 14 6 8 5 4 7 3h11l10-5 7-8 5-12 2-12v-20l-2-12-4-10-9-10-7-4-3-1z" fill="#B8F7F2"/>
<path transform="translate(882 1e3)" d="m0 0h29l1 4v46l21 1h24v-50l1-1h29l1 2v127h-30l-1-1-1-53-1-1-43-1v56h-30l-1-1v-127z" fill="#B8F7F2"/>
<path transform="translate(1236 1e3)" d="m0 0h36l4 10 18 57 15 48 4 12v2h-31l-3-6-6-23-1-2h-38l-6 21-3 9-1 1h-28l-1-3 13-41 17-54 9-29zm16 24-7 24-5 19-1 8h28l-2-12-7-25-4-12z" fill="#B8F7F2"/>
<path transform="translate(544 1e3)" d="m0 0h36l4 9 11 35 18 57 7 23v5h-30l-4-13-4-15-2-3-38-1-3 11-6 21-4 1-26-1 2-9 16-49 16-51 6-19zm16 23-12 46v6l26 1 2-2-8-32-6-19z" fill="#B8F7F2"/>
<path transform="translate(1416 1e3)" d="m0 0h12l19 1 4 6 13 29 3 7 2 1 2-6 8-18 7-17 4-3h29l-1 5-12 22-18 34-1 6 10 17 14 25 10 18v3l-7 1-25-1-4-5-12-25-7-15-2 1-18 41-4 4-30-1 2-6 13-23 15-28 4-7-1-7-18-34-12-22z" fill="#B8F7F2"/>
<path transform="translate(664 1e3)" d="m0 0h63l13 4 9 5 7 8 5 11 1 4v19l-5 13-7 9-9 6-11 4-16 2-19 1v41l-1 2h-29l-1-1zm35 21-5 2-1 12v21l1 6 7 2h11l10-3 6-4 4-6 1-4v-11l-3-7-5-4-8-3-6-1z" fill="#B8F7F2"/>
<path transform="translate(1322,471)" d="m0 0h2l1 6v32l-1 14-5 5-12 10-17 11-21 13-26 14-27 12h-3l3-9 10-24 20-45 6-10 11-4 27-9 25-12z" fill="#57A9D5"/>
<path transform="translate(378 1e3)" d="m0 0h93l8 1v20l-1 1-34 1-1 107h-31v-107h-29l-7-1v-20z" fill="#B8F7F2"/>
<path transform="translate(1118,950)" d="m0 0 4 1 12 14 1 3-14 10-15 10-7 5-5-5-7-9 1-4 12-11 14-11z" fill="#B8F7F2"/>
<path transform="translate(557,1145)" d="m0 0h9l8 4 3 6v12l-4 6-5 2h-13l-6-3-4-7-1-7 4-8 6-4z" fill="#B8F7F2"/>
</svg>
