<?xml version="1.0" encoding="utf-8"?>
<svg xmlns="http://www.w3.org/2000/svg" viewBox="0 0 500 500">
  <path d="M 124.331 66.11 L 266.726 66.11 L 271.622 67.29 L 278.558 70.04 L 285.086 73.18 L 294.062 77.89 L 305.078 84.17 L 314.462 89.27 L 324.254 94.77 L 334.046 99.87 L 341.798 103.798 L 353.63 109.294 L 363.83 113.22 L 374.03 116.753 L 385.454 119.893 L 400.55 122.641 L 404.222 123.426 L 404.63 124.997 L 404.222 139.914 L 398.51 142.662 L 387.902 146.588 L 378.926 149.336 L 377.294 148.943 L 374.846 141.877 L 372.806 138.344 L 368.726 134.811 L 364.238 132.848 L 356.078 131.278 L 351.182 130.885 L 301.406 129.315 L 261.014 128.53 L 223.478 127.745 L 191.246 127.352 L 186.35 126.959 L 185.534 126.174 L 182.27 111.649 L 179.822 101.05 L 177.374 96.34 L 174.11 93.98 L 171.662 93.2 L 168.806 92.81 L 163.502 92.81 L 155.75 93.98 L 143.51 97.12 L 132.087 101.05 L 125.561 104.191 L 122.291 106.939 L 120.251 109.687 L 119.031 113.612 L 118.621 119.108 L 119.851 124.997 L 121.891 129.707 L 124.331 132.848 L 126.371 134.026 L 128.415 134.418 L 134.535 134.026 L 142.286 132.455 L 145.55 132.063 L 146.774 137.559 L 147.182 141.877 L 144.326 142.662 L 119.441 144.232 L 106.791 145.802 L 97.001 147.373 L 96.591 146.98 L 96.181 137.559 L 96.181 99.87 L 96.591 92.02 L 97.811 86.53 L 100.261 81.03 L 103.931 76.32 L 108.421 72 L 113.731 68.86 L 119.441 66.9 L 124.331 66.11 Z" fill="#59BCC6" style=""/>
  <path d="M 159.83 103.798 L 163.91 103.798 L 166.766 104.583 L 168.806 106.939 L 170.03 110.864 L 172.886 124.997 L 175.334 137.951 L 175.742 139.914 L 190.838 140.307 L 214.502 140.699 L 241.43 141.484 L 281.414 142.269 L 312.014 143.055 L 356.078 143.84 L 359.75 144.625 L 361.79 146.588 L 363.014 148.943 L 363.014 153.261 L 360.566 159.15 L 355.67 169.749 L 352.814 175.637 L 346.694 188.592 L 338.942 205.08 L 332.414 219.212 L 327.926 228.633 L 323.03 239.233 L 320.582 242.766 L 319.358 243.943 L 314.054 244.728 L 304.67 244.728 L 303.854 245.121 L 309.158 249.832 L 311.198 253.365 L 312.014 258.468 L 311.198 262.001 L 308.75 265.927 L 305.486 268.282 L 302.222 269.46 L 296.51 269.46 L 292.43 267.89 L 289.982 265.927 L 287.942 262.786 L 286.718 258.861 L 286.718 255.72 L 288.35 251.402 L 292.022 247.476 L 294.47 245.514 L 294.878 244.728 L 206.342 244.728 L 205.934 245.514 L 209.606 246.691 L 212.054 248.261 L 214.502 251.009 L 216.134 254.935 L 216.134 260.431 L 213.686 265.142 L 210.83 267.497 L 207.566 269.067 L 205.934 269.46 L 202.262 269.46 L 197.774 267.89 L 194.51 265.534 L 192.47 262.394 L 191.654 260.431 L 191.246 256.898 L 192.47 252.187 L 194.918 249.047 L 198.182 246.299 L 201.446 245.514 L 201.854 244.728 L 189.206 244.336 L 183.902 243.551 L 180.638 241.195 L 179.006 236.092 L 170.438 189.77 L 165.95 166.216 L 161.87 145.017 L 158.198 123.819 L 157.382 120.678 L 157.382 119.108 L 147.182 121.856 L 138.615 124.212 L 134.535 124.212 L 132.087 123.034 L 130.047 120.678 L 129.639 119.501 L 129.639 115.575 L 131.271 112.827 L 133.311 111.257 L 139.431 109.294 L 159.83 103.798 Z M 178.598 154.046 L 178.598 157.579 L 181.454 172.104 L 182.27 173.674 L 184.31 172.104 L 187.166 166.608 L 191.246 156.794 L 191.654 154.439 L 190.022 154.046 L 178.598 154.046 Z M 207.566 154.831 L 205.934 157.579 L 202.262 165.431 L 196.55 178.385 L 189.206 194.48 L 187.166 199.191 L 187.166 203.902 L 190.838 225.1 L 192.47 230.204 L 193.286 230.596 L 197.366 230.596 L 198.998 228.633 L 209.606 204.294 L 216.95 187.807 L 221.438 177.6 L 228.782 161.505 L 230.822 156.402 L 230.822 155.224 L 226.742 154.831 L 207.566 154.831 Z M 247.142 155.224 L 244.694 158.757 L 239.798 170.141 L 235.31 179.955 L 229.598 192.91 L 223.478 206.65 L 216.134 222.352 L 213.686 228.633 L 214.094 230.596 L 225.11 230.989 L 235.31 230.989 L 237.758 230.204 L 239.798 227.063 L 245.102 214.501 L 251.222 201.154 L 256.526 189.377 L 261.83 177.208 L 268.358 162.683 L 269.99 158.365 L 269.99 156.009 L 269.582 155.617 L 253.262 155.224 L 247.142 155.224 Z M 286.31 156.402 L 283.046 162.683 L 276.926 176.815 L 269.174 193.695 L 263.87 205.472 L 258.566 217.642 L 254.078 227.456 L 253.262 230.204 L 256.118 230.989 L 272.438 231.381 L 274.478 230.596 L 276.518 227.456 L 280.598 217.642 L 285.902 205.865 L 292.838 190.162 L 297.734 179.17 L 303.038 167.393 L 306.302 159.935 L 306.71 156.794 L 303.038 156.402 L 286.31 156.402 Z M 323.438 156.794 L 321.806 158.365 L 318.542 165.431 L 313.238 177.6 L 301.406 203.902 L 296.51 214.894 L 291.206 226.671 L 289.982 230.596 L 291.206 230.989 L 308.342 231.381 L 311.198 230.596 L 313.238 227.848 L 317.318 218.427 L 322.214 207.827 L 326.702 198.013 L 329.558 192.125 L 337.31 175.637 L 343.838 161.898 L 344.654 159.542 L 344.654 157.579 L 343.838 157.187 L 323.438 156.794 Z" style="fill: rgb(38, 70, 83);"/>
  <path d="M 132.903 157.187 L 150.038 157.187 L 151.262 159.542 L 154.526 175.637 L 161.054 209.398 L 165.542 234.914 L 167.582 243.158 L 170.03 247.869 L 173.294 250.224 L 178.19 252.187 L 182.678 253.365 L 182.678 261.216 L 183.494 267.89 L 179.414 271.03 L 172.478 276.526 L 166.766 280.844 L 161.462 285.162 L 156.566 289.481 L 153.302 292.229 L 147.998 297.332 L 145.142 300.472 L 143.102 302.043 L 136.575 302.435 L 125.971 302.435 L 120.251 301.65 L 113.731 299.295 L 109.241 296.547 L 105.161 293.014 L 102.301 289.873 L 99.041 284.377 L 97.411 279.667 L 96.591 274.563 L 96.591 162.683 L 97.811 161.505 L 102.711 160.327 L 114.951 158.757 L 132.903 157.187 Z" fill="#56A8D5" style=""/>
  <path d="M 403.406 181.526 L 404.222 181.526 L 404.63 184.274 L 404.63 210.575 L 404.222 216.856 L 399.734 220.389 L 394.43 224.315 L 389.126 229.026 L 378.926 238.84 L 376.07 241.98 L 370.766 248.261 L 367.502 252.58 L 364.646 256.505 L 359.342 263.964 L 354.446 271.423 L 347.51 282.807 L 341.798 293.014 L 337.31 300.865 L 336.086 302.043 L 332.414 302.435 L 159.422 302.435 L 159.014 301.65 L 161.054 299.687 L 165.134 296.154 L 172.07 291.051 L 179.414 285.948 L 187.166 281.237 L 192.47 278.096 L 194.51 276.919 L 198.59 277.311 L 205.934 277.311 L 212.87 275.741 L 217.766 273.778 L 221.846 270.638 L 224.294 266.712 L 226.742 260.038 L 230.822 257.29 L 236.126 255.328 L 237.758 254.935 L 274.07 254.935 L 278.15 255.328 L 278.15 263.179 L 279.374 267.105 L 281.822 271.03 L 284.678 273.386 L 290.39 276.133 L 294.878 277.311 L 300.182 277.704 L 305.894 276.526 L 310.79 274.171 L 314.87 270.638 L 317.318 267.105 L 318.95 262.786 L 319.766 258.468 L 320.582 257.683 L 324.254 257.29 L 327.926 254.935 L 330.782 251.795 L 335.27 243.158 L 338.942 234.914 L 346.694 218.427 L 349.958 212.146 L 351.998 210.183 L 365.87 203.509 L 374.846 198.799 L 383.822 193.695 L 392.798 188.199 L 401.366 183.096 L 403.406 181.526 Z" fill="#7481EB" style=""/>
  <path d="M 300.59 65.72 L 363.014 65.72 L 377.294 66.11 L 383.006 67.29 L 387.902 69.25 L 393.206 72.79 L 397.694 77.1 L 400.958 82.21 L 402.998 86.53 L 404.222 92.02 L 404.63 96.73 L 404.63 114.397 L 402.998 114.79 L 389.126 111.649 L 374.438 106.939 L 362.606 102.228 L 351.998 97.12 L 342.206 91.63 L 332.822 86.13 L 326.702 82.21 L 316.502 75.93 L 308.342 70.82 L 300.998 66.9 L 300.59 65.72 Z" fill="#B8F7F2" style=""/>
  <path d="M 403.814 228.241 L 404.63 228.241 L 404.63 271.815 L 404.222 277.311 L 402.182 283.592 L 399.734 288.303 L 396.878 291.836 L 394.022 294.976 L 389.534 298.117 L 384.23 300.472 L 378.518 302.043 L 375.254 302.435 L 354.854 302.435 L 352.814 302.043 L 353.63 299.687 L 358.526 289.873 L 363.422 280.844 L 368.726 271.815 L 372.806 265.142 L 377.702 257.683 L 383.414 249.832 L 389.126 242.766 L 393.206 238.447 L 396.062 235.307 L 400.142 231.381 L 403.406 228.633 L 403.814 228.241 Z" fill="#A880EB" style=""/>
  <path d="M 302.181 354.646 L 309.933 355.431 L 315.237 357.394 L 319.317 360.142 L 322.581 363.282 L 325.437 367.993 L 327.477 373.882 L 328.293 378.985 L 328.293 384.088 L 327.069 391.547 L 325.029 396.65 L 322.581 400.969 L 320.133 403.716 L 316.461 406.464 L 311.973 408.427 L 308.301 409.212 L 298.917 409.212 L 293.613 407.642 L 289.941 405.679 L 286.269 402.931 L 282.597 397.828 L 280.149 391.547 L 278.925 385.659 L 278.925 377.807 L 280.557 371.526 L 282.597 366.816 L 285.045 362.89 L 287.085 360.535 L 291.165 357.787 L 295.653 355.824 L 302.181 354.646 Z M 301.365 363.675 L 297.285 365.638 L 294.429 368.778 L 292.389 373.097 L 291.573 375.845 L 291.165 378.985 L 291.165 383.696 L 291.981 389.192 L 294.021 394.688 L 296.469 397.828 L 298.509 399.398 L 301.365 400.576 L 305.853 400.576 L 309.933 398.613 L 312.789 395.473 L 314.829 390.762 L 315.645 386.051 L 315.645 378.2 L 314.829 373.489 L 313.197 369.563 L 309.525 365.638 L 306.669 364.068 L 305.445 363.675 L 301.365 363.675 Z" style="fill: rgb(38, 70, 83);"/>
  <path d="M 223.886 356.216 L 235.718 356.216 L 236.126 357.787 L 236.126 375.845 L 244.694 376.237 L 254.486 376.237 L 254.486 356.609 L 254.894 356.216 L 266.726 356.216 L 267.134 357.001 L 267.134 406.857 L 254.894 406.857 L 254.486 406.464 L 254.078 385.659 L 253.67 385.266 L 236.126 384.873 L 236.126 406.857 L 223.886 406.857 L 223.478 406.464 L 223.478 356.609 L 223.886 356.216 Z" style="fill: rgb(38, 70, 83);"/>
  <path d="M 353.237 356.216 L 367.925 356.216 L 369.557 360.142 L 376.901 382.518 L 383.021 401.361 L 384.653 406.072 L 384.653 406.857 L 372.005 406.857 L 370.781 404.502 L 368.333 395.473 L 367.925 394.688 L 352.421 394.688 L 349.973 402.931 L 348.749 406.464 L 348.341 406.857 L 336.917 406.857 L 336.509 405.679 L 341.813 389.584 L 348.749 368.386 L 352.421 357.001 L 353.237 356.216 Z M 359.765 365.638 L 356.909 375.059 L 354.869 382.518 L 354.461 385.659 L 365.885 385.659 L 365.069 380.948 L 362.213 371.134 L 360.581 366.423 L 359.765 365.638 Z" style="fill: rgb(38, 70, 83);"/>
  <path d="M 94.655 356.814 L 109.345 356.814 L 110.975 360.347 L 115.465 374.087 L 122.805 396.463 L 125.665 405.492 L 125.665 407.455 L 113.425 407.455 L 111.795 402.352 L 110.165 396.463 L 109.345 395.286 L 93.845 394.893 L 92.615 399.211 L 90.165 407.455 L 88.535 407.848 L 77.925 407.455 L 78.745 403.922 L 85.275 384.686 L 91.805 364.666 L 94.245 357.207 L 94.655 356.814 Z M 101.185 365.843 L 96.285 383.901 L 96.285 386.257 L 106.895 386.649 L 107.715 385.864 L 104.445 373.302 L 102.005 365.843 L 101.185 365.843 Z" style="fill: rgb(38, 70, 83);"/>
  <path d="M 422.907 355.273 L 427.804 355.273 L 435.556 355.666 L 437.188 358.021 L 442.492 369.406 L 443.716 372.154 L 444.532 372.546 L 445.348 370.191 L 448.612 363.125 L 451.468 356.451 L 453.1 355.273 L 464.932 355.273 L 464.524 357.236 L 459.628 365.873 L 452.284 379.22 L 451.876 381.575 L 455.956 388.249 L 461.668 398.063 L 465.748 405.129 L 465.748 406.307 L 462.892 406.699 L 452.692 406.307 L 451.06 404.344 L 446.164 394.53 L 443.308 388.641 L 442.492 389.034 L 435.148 405.129 L 433.516 406.699 L 421.275 406.307 L 422.091 403.951 L 427.396 394.922 L 433.516 383.93 L 435.148 381.183 L 434.74 378.435 L 427.396 365.087 L 422.499 356.451 L 422.907 355.273 Z" style="fill: rgb(38, 70, 83);"/>
  <path d="M 134.943 356.216 L 160.646 356.216 L 165.95 357.787 L 169.622 359.749 L 172.478 362.89 L 174.518 367.208 L 174.926 368.778 L 174.926 376.237 L 172.886 381.34 L 170.03 384.873 L 166.358 387.229 L 161.87 388.799 L 155.342 389.584 L 147.59 389.977 L 147.59 406.072 L 147.182 406.857 L 135.351 406.857 L 134.943 406.464 L 134.943 356.216 Z M 149.222 364.46 L 147.182 365.245 L 146.774 369.956 L 146.774 378.2 L 147.182 380.555 L 150.038 381.34 L 154.526 381.34 L 158.606 380.163 L 161.054 378.592 L 162.686 376.237 L 163.094 374.667 L 163.094 370.349 L 161.87 367.601 L 159.83 366.03 L 156.566 364.853 L 154.118 364.46 L 149.222 364.46 Z" style="fill: rgb(38, 70, 83);"/>
  <path d="M 403.406 148.55 L 404.222 148.55 L 404.63 150.906 L 404.63 163.468 L 404.222 168.964 L 402.182 170.927 L 397.286 174.852 L 390.35 179.17 L 381.782 184.274 L 371.174 189.77 L 360.158 194.48 L 358.934 194.48 L 360.158 190.947 L 364.238 181.526 L 372.398 163.86 L 374.846 159.935 L 379.334 158.365 L 390.35 154.831 L 400.55 150.121 L 403.406 148.55 Z" fill="#57A9D5" style=""/>
  <path d="M 36.731 356.216 L 74.671 356.216 L 77.931 356.609 L 77.931 364.46 L 77.531 364.853 L 63.651 365.245 L 63.251 407.25 L 50.601 407.25 L 50.601 365.245 L 38.771 365.245 L 35.911 364.853 L 35.911 357.001 L 36.731 356.216 Z" style="fill: rgb(38, 70, 83);"/>
  <path d="M 314.519 330.461 L 316.151 330.854 L 321.047 336.35 L 321.455 337.527 L 315.743 341.453 L 309.623 345.379 L 306.767 347.341 L 304.727 345.379 L 301.871 341.846 L 302.279 340.275 L 307.175 335.957 L 312.887 331.639 L 314.519 330.461 Z" style="fill: rgb(38, 70, 83);"/>
  <path d="M 100.563 411.942 L 104.233 411.942 L 107.493 413.512 L 108.723 415.868 L 108.723 420.578 L 107.083 422.934 L 105.043 423.719 L 99.743 423.719 L 97.293 422.541 L 95.663 419.793 L 95.253 417.045 L 96.883 413.905 L 99.333 412.335 L 100.563 411.942 Z" style="fill: rgb(38, 70, 83);"/>
</svg>