<?xml version="1.0" encoding="UTF-8"?>
<svg id="Layer_2" data-name="Layer 2" xmlns="http://www.w3.org/2000/svg" xmlns:xlink="http://www.w3.org/1999/xlink" viewBox="0 0 350 150">
  <defs>
    <style>
      .cls-1, .cls-2 {
        fill: #6c97c5;
      }

      .cls-3, .cls-4 {
        fill: none;
        stroke: #000;
        stroke-miterlimit: 10;
      }

      .cls-5 {
        font-family: Metropolis-Black, 'Metropolis Black';
        font-size: 9.24px;
        font-weight: 800;
        letter-spacing: .08em;
      }

      .cls-5, .cls-6, .cls-7, .cls-8 {
        fill: #f7f8fb;
      }

      .cls-9 {
        letter-spacing: -.04em;
      }

      .cls-6 {
        font-family: Metropolis-Medium, 'Metropolis Medium';
        font-size: 12.39px;
        font-weight: 500;
      }

      .cls-2, .cls-10 {
        font-family: Metropolis-Regular, 'Metropolis Regular';
        font-size: 41.21px;
      }

      .cls-11 {
        fill: #e0938c;
      }

      .cls-12 {
        letter-spacing: -.03em;
      }

      .cls-13 {
        filter: url(#drop-shadow-1);
      }

      .cls-13, .cls-14 {
        fill: #b5d9fe;
      }

      .cls-10 {
        fill: #fff;
      }

      .cls-8, .cls-4 {
        font-family: Metropolis-Bold, 'Metropolis Bold';
        font-size: 60.99px;
        font-weight: 700;
      }

      .cls-15 {
        fill: #9abfe3;
      }
    </style>
    <filter id="drop-shadow-1" x="0" y="0" width="350" height="150" filterUnits="userSpaceOnUse">
      <feOffset dx="7" dy="7"/>
      <feGaussianBlur result="blur" stdDeviation="5"/>
      <feFlood flood-color="#4a3d37" flood-opacity=".52"/>
      <feComposite in2="blur" operator="in"/>
      <feComposite in="SourceGraphic"/>
    </filter>
  </defs>
  <g id="OBJECTS">
    <g>
      <rect class="cls-13" x="8" y="8.24" width="319.18" height="118.84"/>
      <rect class="cls-11" x="8" y="8.24" width="319.18" height="118.84"/>
      <g>
        <text class="cls-8" transform="translate(189.08 90.42)"><tspan x="0" y="0">45%</tspan></text>
        <text class="cls-4" transform="translate(187.23 87.66)"><tspan x="0" y="0">45%</tspan></text>
      </g>
      <text class="cls-6" transform="translate(291.77 119.53)"><tspan x="0" y="0">OFF</tspan></text>
      <text class="cls-6" transform="translate(281.29 39.6)"><tspan x="0" y="0">UP</tspan><tspan class="cls-9" x="14.61" y="0"> </tspan><tspan class="cls-12" x="16.72" y="0">T</tspan><tspan x="22.55" y="0">O</tspan></text>
      <polygon class="cls-7" points="8 8.24 106.29 8.24 204.58 127.08 8 127.08 8 8.24"/>
      <g>
        <polygon class="cls-3" points="147.72 36.45 151.34 95.48 26.91 85.92 26.91 40.05 147.72 36.45"/>
        <polygon class="cls-14" points="31.09 92.81 31.09 30.72 156.05 41.59 159.84 91.61 31.09 92.81"/>
        <line class="cls-3" x1="147.72" y1="36.45" x2="151.34" y2="95.48"/>
      </g>
      <g>
        <text class="cls-2" transform="translate(36.95 79.06)"><tspan x="0" y="0">SALE</tspan></text>
        <text class="cls-10" transform="translate(36.95 77.26)"><tspan x="0" y="0">SALE</tspan></text>
      </g>
      <polygon points="110.19 94.34 109.08 118.15 37.12 115.46 36.22 97.9 110.19 94.34"/>
      <text class="cls-5" transform="translate(38.8 109.12)"><tspan x="0" y="0">CLICK HERE!</tspan></text>
      <polygon class="cls-14" points="312.37 95.72 312.37 98.45 213.48 95.74 213.42 94.1 312.37 95.72"/>
      <polygon points="312.26 100.45 312.36 102.13 214.13 103.06 214.1 102.06 312.26 100.45"/>
      <polygon class="cls-7" points="213.45 97.83 214.04 100.51 312.36 99.84 312.36 99.07 213.45 97.83"/>
      <polygon class="cls-14" points="175.8 105.23 204.58 91.66 190.19 118.84 175.8 105.23"/>
      <polygon class="cls-3" points="223.45 34.76 226.4 14.24 212.42 14.14 223.45 34.76"/>
      <polygon class="cls-14" points="322.87 112.66 318.38 105.23 324.36 106.25 322.87 112.66"/>
      <polygon class="cls-3" points="322.87 48.34 310.4 59.06 324.36 55.07 322.87 48.34"/>
      <polygon class="cls-7" points="181.35 28.5 193.74 44.4 175.8 34.3 181.35 28.5"/>
      <polygon class="cls-7" points="255.49 17.42 260.23 31.47 265.91 17.42 255.49 17.42"/>
      <polygon class="cls-7" points="237.3 121.89 241.79 108.61 246.03 121.89 237.3 121.89"/>
      <polygon points="169 60.36 178.82 64.59 168.42 64.31 169 60.36"/>
      <polygon points="272.51 121.39 272.51 109.12 279.24 121.39 272.51 121.39"/>
      <g>
        <rect class="cls-7" x="161.73" y="27.83" width="1.34" height="1.34"/>
        <rect class="cls-7" x="254.82" y="109.63" width="1.34" height="1.34"/>
        <rect class="cls-7" x="320.64" y="67.66" width="1.34" height="1.34"/>
        <rect class="cls-7" x="283.46" y="17.35" width="1.25" height="1.25"/>
        <rect x="155.99" y="99.27" width="1.25" height="1.25"/>
        <rect class="cls-7" x="316.9" y="18.74" width=".97" height=".97"/>
        <rect class="cls-7" x="241.18" y="33.79" width=".97" height=".97"/>
        <rect x="107.92" y="25.37" width=".97" height=".97"/>
        <rect class="cls-7" x="221.22" y="117.52" width=".97" height=".97"/>
        <rect x="87.86" y="15.02" width=".72" height=".72"/>
        <rect class="cls-15" x="133.27" y="17.22" width="1.51" height="1.51"/>
        <rect class="cls-1" x="23.77" y="111.91" width="1.51" height="1.51"/>
        <rect x="22.84" y="17.61" width=".72" height=".72"/>
        <rect class="cls-7" x="200.73" y="22.9" width="2.02" height="2.02"/>
        <rect x="66.73" y="24.43" width="1.88" height="1.88"/>
        <rect x="118.54" y="110.55" width="1.31" height="1.31"/>
        <rect class="cls-14" x="12.62" y="48.73" width="1.29" height="1.29"/>
      </g>
    </g>
  </g>
</svg>