<?xml version="1.0" encoding="UTF-8"?>
<svg xmlns="http://www.w3.org/2000/svg" viewBox="0 0 393.15 137.32">
  <defs>
    <style>
      .cls-1, .cls-2 {
        fill: #4fdea0;
      }

      .cls-3 {
        fill: #ba08a9;
      }

      .cls-3, .cls-4 {
        mix-blend-mode: multiply;
        opacity: .2;
      }

      .cls-5 {
        letter-spacing: 0em;
      }

      .cls-6, .cls-7, .cls-8, .cls-9 {
        fill: #fff;
      }

      .cls-10 {
        letter-spacing: -.07em;
      }

      .cls-7, .cls-11 {
        font-size: 38.32px;
      }

      .cls-7, .cls-9 {
        font-family: Raleway-Black, 'Raleway Black';
        font-weight: 800;
      }

      .cls-12 {
        fill: #40297a;
      }

      .cls-4, .cls-13 {
        fill: #633ea8;
      }

      .cls-14 {
        fill: none;
        stroke: #633ea8;
        stroke-miterlimit: 10;
        stroke-width: 2px;
      }

      .cls-15 {
        isolation: isolate;
      }

      .cls-8 {
        font-family: Raleway-ExtraBoldItalic, 'Raleway ExtraBoldItalic';
        font-size: 14.88px;
        font-style: italic;
      }

      .cls-8, .cls-2 {
        font-weight: 700;
      }

      .cls-16 {
        letter-spacing: 0em;
      }

      .cls-2 {
        font-family: Raleway-Bold, 'Raleway Bold';
        font-size: 11.5px;
      }

      .cls-17 {
        letter-spacing: 0em;
      }

      .cls-18 {
        font-size: 30.66px;
      }
    </style>
  </defs>
  <g class="cls-15">
    <g id="Layer_2" data-name="Layer 2">
      <g id="OBJECTS">
        <g>
          <g>
            <polygon class="cls-12" points="304.5 86.7 249.9 12.61 366.46 0 393.15 82.07 304.5 86.7"/>
            <polyline class="cls-12" points="106.51 21.56 350.83 137.32 243.51 132.69 34.34 36.88"/>
            <polygon class="cls-1" points="34.34 125.66 15.5 45.19 381.15 6.23 364.54 125.66 34.34 125.66"/>
            <polygon class="cls-4" points="111.69 24.01 111.69 57.96 44.88 66.34 40.41 34.97 106.51 21.56 111.69 24.01"/>
            <polygon class="cls-13" points="34.34 36.88 39.46 63.71 106.51 54.13 106.51 21.56 34.34 36.88"/>
            <polygon class="cls-4" points="368.91 7.53 356.4 125.66 337.24 125.5 353.07 9.22 368.91 7.53"/>
            <polygon class="cls-13" points="249.9 12.61 243.51 132.69 350.83 137.32 366.46 0 249.9 12.61"/>
            <polygon class="cls-3" points="374.61 83.04 380.32 42.63 377.46 33.85 370.44 83.26 374.61 83.04"/>
          </g>
          <text class="cls-7" transform="translate(81.32 102.81) rotate(-2.86)"><tspan x="0" y="0">BIG SALE!</tspan></text>
          <text class="cls-8" transform="translate(48.07 53.89) rotate(-10.71)"><tspan class="cls-10" x="0" y="0">T</tspan><tspan class="cls-5" x="6.34" y="0">od</tspan><tspan class="cls-16" x="22.9" y="0">a</tspan><tspan x="29.96" y="0">y!</tspan></text>
          <text class="cls-9" transform="translate(267.58 77.26) rotate(.43)"><tspan class="cls-11"><tspan x="0" y="0">50%</tspan></tspan><tspan class="cls-18"><tspan x="9.34" y="32.57">OFF</tspan></tspan></text>
          <text class="cls-2" transform="translate(290.47 36.8) rotate(.43)"><tspan x="0" y="0">up </tspan><tspan class="cls-17" x="15.31" y="0">t</tspan><tspan x="19.05" y="0">o</tspan></text>
          <path class="cls-6" d="M237.02,37.23c-1.86,0-3.38-1.51-3.38-3.38s1.51-3.38,3.38-3.38,3.38,1.51,3.38,3.38-1.51,3.38-3.38,3.38ZM237.02,32.39c-.81,0-1.46.65-1.46,1.46s.65,1.46,1.46,1.46,1.46-.65,1.46-1.46-.65-1.46-1.46-1.46Z"/>
          <path class="cls-1" d="M10.33,118.97c-1.86,0-3.38-1.51-3.38-3.38s1.51-3.38,3.38-3.38,3.38,1.51,3.38,3.38-1.51,3.38-3.38,3.38ZM10.33,114.14c-.81,0-1.46.65-1.46,1.46s.65,1.46,1.46,1.46,1.46-.65,1.46-1.46-.65-1.46-1.46-1.46Z"/>
          <g>
            <path class="cls-13" d="M.38,41.21l-.38-3.6c3.35-.36,5.79-3.37,5.43-6.72l3.6-.38c.57,5.34-3.31,10.14-8.65,10.71Z"/>
            <path class="cls-13" d="M16.14,39.53c-5.34.57-10.14-3.31-10.71-8.65l3.6-.38c.36,3.35,3.37,5.79,6.72,5.43l.38,3.6Z"/>
            <path class="cls-13" d="M10.71,46.26l-3.6.38c-.36-3.35-3.37-5.79-6.72-5.43l-.38-3.6c5.34-.57,10.14,3.31,10.71,8.65Z"/>
            <path class="cls-13" d="M10.71,46.26l-3.6.38c-.57-5.34,3.31-10.14,8.65-10.71l.38,3.6c-3.35.36-5.79,3.37-5.43,6.72Z"/>
          </g>
          <g>
            <path class="cls-13" d="M214.24,46.12l-.15-2.65c2.47-.14,4.36-2.26,4.22-4.73l2.65-.15c.23,3.93-2.79,7.31-6.71,7.53Z"/>
            <path class="cls-13" d="M225.84,45.45c-3.93.23-7.31-2.79-7.53-6.71l2.65-.15c.14,2.47,2.26,4.36,4.73,4.22l.15,2.65Z"/>
            <path class="cls-13" d="M221.62,50.18l-2.65.15c-.14-2.47-2.26-4.36-4.73-4.22l-.15-2.65c3.93-.23,7.31,2.79,7.53,6.71Z"/>
            <path class="cls-13" d="M221.62,50.18l-2.65.15c-.23-3.93,2.79-7.31,6.71-7.53l.15,2.65c-2.47.14-4.36,2.26-4.22,4.73Z"/>
          </g>
          <g>
            <path class="cls-13" d="M16.34,128.75l-.13-2.28c2.12-.12,3.74-1.94,3.62-4.06l2.28-.13c.19,3.37-2.39,6.28-5.77,6.47Z"/>
            <path class="cls-13" d="M26.31,128.17c-3.37.19-6.28-2.39-6.47-5.77l2.28-.13c.12,2.12,1.94,3.74,4.06,3.62l.13,2.28Z"/>
            <path class="cls-13" d="M22.69,132.24l-2.28.13c-.12-2.12-1.94-3.74-4.06-3.62l-.13-2.28c3.37-.19,6.28,2.39,6.47,5.77Z"/>
            <path class="cls-13" d="M22.69,132.24l-2.28.13c-.19-3.37,2.39-6.28,5.77-6.47l.13,2.28c-2.12.12-3.74,1.94-3.62,4.06Z"/>
          </g>
          <path class="cls-13" d="M382.72,114.43c-2.58,0-4.68-2.1-4.68-4.68s2.1-4.68,4.68-4.68,4.68,2.1,4.68,4.68-2.1,4.68-4.68,4.68ZM382.72,107.72c-1.12,0-2.02.91-2.02,2.02s.91,2.02,2.02,2.02,2.02-.91,2.02-2.02-.91-2.02-2.02-2.02Z"/>
          <g>
            <path class="cls-1" d="M372.63,125.58l.13-1.69c1.57.12,2.94-1.05,3.07-2.62l1.69.13c-.2,2.5-2.39,4.37-4.88,4.17Z"/>
            <path class="cls-1" d="M380.01,126.16c-2.5-.2-4.37-2.39-4.17-4.88l1.69.13c-.12,1.57,1.05,2.94,2.62,3.07l-.13,1.69Z"/>
            <path class="cls-1" d="M376.94,128.78l-1.69-.13c.12-1.57-1.05-2.94-2.62-3.07l.13-1.69c2.5.2,4.37,2.39,4.17,4.88Z"/>
            <path class="cls-1" d="M376.94,128.78l-1.69-.13c.2-2.5,2.39-4.37,4.88-4.17l-.13,1.69c-1.57-.12-2.94,1.05-3.07,2.62Z"/>
          </g>
          <polygon class="cls-6" points="201.18 35.52 199.91 34.43 198.23 36.38 196.28 34.7 195.2 35.97 197.15 37.65 195.47 39.59 196.73 40.68 198.41 38.73 200.36 40.41 201.45 39.14 199.5 37.47 201.18 35.52"/>
          <line class="cls-14" x1="12.61" y1="58.55" x2="18.38" y2="83.19"/>
          <line class="cls-14" x1="184" y1="21.56" x2="239.16" y2="15.68"/>
          <line class="cls-14" x1="34.34" y1="130.45" x2="72.35" y2="130.29"/>
          <polygon class="cls-1" points="380.11 93.81 379.45 92.93 378.09 93.94 377.08 92.58 376.2 93.24 377.21 94.6 375.85 95.61 376.51 96.49 377.87 95.48 378.88 96.84 379.76 96.18 378.75 94.82 380.11 93.81"/>
        </g>
      </g>
    </g>
  </g>
</svg>